<svg width="45" height="44" viewBox="0 0 45 44" fill="none" xmlns="http://www.w3.org/2000/svg">
<g clip-path="url(#clip0_95_2)">
<path d="M39.9961 27.5105L35.2072 20.6877V18.8452V17.8314V8.67371C35.2072 8.07884 34.9735 7.51948 34.5506 7.09981L28.0646 0.651235C27.6416 0.230845 27.0784 0 26.482 0H6.96228C4.8595 0 3.14954 1.70065 3.14954 3.79038V37.9698C3.14954 40.0595 4.85959 41.7602 6.96228 41.7602H21.256H24.8193C24.99 41.9868 25.1706 42.2062 25.3785 42.4029C26.2787 43.2586 27.4912 43.7922 28.833 43.7922C31.2497 43.7922 28.7211 43.7922 31.9162 43.7922C33.2563 43.7922 34.4718 43.2586 35.3721 42.4029C36.4212 41.4075 36.9286 40.0993 36.9286 38.8091V35.2358C38.3836 34.9309 39.6306 33.999 40.3301 32.6659C41.197 31.0145 41.0696 29.0388 39.9961 27.5105ZM15.2616 37.0058H7.84383V4.75443H23.6067V8.92462C23.6067 10.4102 24.8222 11.6192 26.3172 11.6192H30.5127V17.5399H30.4898V17.5434C28.903 17.5064 27.302 18.1932 26.2787 19.636L20.7529 27.5104C19.6794 29.0387 19.5518 31.0144 20.419 32.6659C21.1184 33.999 22.3653 34.9309 23.8204 35.2358V37.0057H22.8972H15.2616V37.0058ZM36.8153 30.8421C36.6332 31.1869 36.2778 31.4015 35.8878 31.4015H35.8864H32.9636V38.8092C32.9636 39.3833 32.4935 39.8494 31.9175 39.8494H31.916H28.8329H28.8313C28.255 39.8494 27.785 39.3833 27.785 38.8092V31.4015H24.8623H24.8609C24.4709 31.4015 24.1154 31.1869 23.9335 30.8421C23.7529 30.4973 23.7787 30.0848 24.0037 29.7655L29.515 21.9103C29.7114 21.6318 30.0326 21.4658 30.3736 21.4658H30.3751C30.7163 21.4658 31.0373 21.6318 31.2336 21.9103L36.7451 29.7655C36.97 30.0847 36.9958 30.4973 36.8153 30.8421Z" fill="black"/>
</g>
<defs>
<clipPath id="clip0_95_2">
<rect width="44.0506" height="43.7922" fill="white"/>
</clipPath>
</defs>
</svg>
