<svg width="49" height="44" viewBox="0 0 49 44" fill="none" xmlns="http://www.w3.org/2000/svg">
<path d="M17.0701 26.3562C12.3373 26.034 8.58391 22.1138 8.58391 17.3288C8.58391 12.3333 12.6716 8.26959 17.6965 8.26959C21.7304 8.26959 25.1558 10.8916 26.3517 14.5088C26.4227 14.5058 26.4907 14.4886 26.5625 14.4886C27.1091 14.4886 27.641 14.588 28.1362 14.7791C28.5915 13.7588 29.4373 12.9544 30.4791 12.5313C30.2753 11.9948 30.0472 11.4708 29.7793 10.9691L31.8607 8.89994C32.1286 8.63366 32.2793 8.27179 32.2793 7.89451C32.2793 7.51724 32.1286 7.15537 31.8607 6.88909L28.1954 3.24695C27.6371 2.69179 26.7312 2.69179 26.1726 3.24695L24.0914 5.3161C23.3385 4.91933 22.5458 4.58705 21.7171 4.33397V1.41378C21.7171 0.628841 21.0767 -0.0078125 20.2871 -0.0078125H15.1059C14.3164 -0.0078125 13.676 0.628841 13.676 1.41378V4.33387C12.8473 4.58695 12.0546 4.91933 11.301 5.316L9.2211 3.24845C8.66267 2.69329 7.75682 2.69329 7.19838 3.24845L3.53375 6.89059C3.266 7.15687 3.11513 7.51874 3.11513 7.89601C3.11513 8.27339 3.266 8.63516 3.53375 8.90144L5.6136 10.9692C5.21449 11.7184 4.88025 12.5057 4.62578 13.3295H1.68745C0.897979 13.3294 0.257568 13.9661 0.257568 14.7511V19.9033C0.257568 20.6884 0.897979 21.325 1.68745 21.325H4.62487C4.87935 22.1487 5.21368 22.9367 5.6127 23.686L3.53224 25.7544C2.97371 26.3095 2.97371 27.2101 3.53224 27.7653L7.19667 31.4084C7.75501 31.9635 8.66096 31.9635 9.21939 31.4084L11.2991 29.3408C12.0528 29.7382 12.8463 30.0712 13.6758 30.3244V33.2445C13.6758 34.0295 14.3162 34.6662 15.1057 34.6662H18.4553C17.5423 33.8727 16.9614 32.7103 16.9614 31.413C16.9617 30.5846 16.8959 27.1558 17.0701 26.3562Z" fill="white"/>
<path d="M23.4875 15.7527C23.6633 15.5779 23.8569 15.4296 24.0553 15.2892C23.1829 12.6105 20.6783 10.6548 17.6963 10.6548C13.9945 10.6548 10.983 13.6487 10.983 17.3289C10.983 21.1892 14.3475 24.4696 18.5711 23.9152C18.8694 23.6737 19.1966 23.4664 19.5529 23.3096C18.2878 20.0547 20.9485 18.2774 23.4875 15.7527Z" fill="white"/>
<path d="M34.1998 23.8018C31.1281 23.8018 28.6289 26.2863 28.6289 29.34C28.6289 32.3936 31.1281 34.8782 34.1998 34.8782C37.2722 34.8782 39.7715 32.3936 39.7715 29.34C39.7715 26.2863 37.2722 23.8018 34.1998 23.8018Z" fill="white"/>
<path d="M48.2405 27.2645C48.2405 26.6324 47.7251 26.1201 47.0893 26.1201H44.7245C44.5192 25.457 44.2497 24.8218 43.9278 24.2194L45.6031 22.5539C45.8195 22.3387 45.9405 22.0477 45.9405 21.7441C45.9405 21.4405 45.8196 21.1494 45.6031 20.9342L42.6533 18.0017C42.4283 17.779 42.134 17.6672 41.8387 17.6672C41.5443 17.6672 41.2498 17.779 41.0249 18.0017L39.3482 19.6686C38.742 19.3488 38.104 19.0818 37.4369 18.8784V16.5275C37.4369 15.8954 36.9215 15.3829 36.2858 15.3829H32.1145C31.4787 15.3829 30.9633 15.8954 30.9633 16.5275V18.8784C30.2964 19.0818 29.6575 19.3488 29.0506 19.6686L27.3761 18.0041C27.1512 17.7804 26.8567 17.6687 26.5615 17.6687C26.267 17.6687 25.9726 17.7805 25.7477 18.0033L22.7979 20.9358C22.5814 21.151 22.4604 21.4421 22.4604 21.7457C22.4604 22.0493 22.5815 22.3403 22.7979 22.5555L24.4724 24.2202C24.1505 24.8226 23.8819 25.457 23.6765 26.1201H21.3117C20.6759 26.1201 20.1605 26.6324 20.1605 27.2645V31.4129C20.1605 32.0449 20.6759 32.5573 21.3117 32.5573H23.6757C23.8811 33.2203 24.1497 33.8555 24.4716 34.458L22.7963 36.1234C22.3472 36.5699 22.3472 37.295 22.7963 37.7423L25.7461 40.6748C25.9624 40.89 26.2553 41.0102 26.5607 41.0102C26.8661 41.0102 27.1589 40.89 27.3753 40.6748L29.049 39.0109C29.6566 39.3308 30.2955 39.5987 30.9633 39.8022V42.1539C30.9633 42.7857 31.4787 43.2983 32.1145 43.2983H36.2858C36.9215 43.2983 37.4369 42.7858 37.4369 42.1539V39.8022C38.1047 39.5987 38.7436 39.3309 39.3504 39.0109L41.0265 40.6764C41.2514 40.9 41.5459 41.011 41.8403 41.011C42.1354 41.011 42.43 40.9 42.6548 40.6764L45.6038 37.7446C45.8201 37.5296 45.9412 37.2384 45.9412 36.9348C45.9412 36.6312 45.8201 36.3401 45.6038 36.1251L43.9285 34.4597C44.2503 33.8564 44.5199 33.2212 44.7244 32.5574H47.0892C47.3946 32.5574 47.6882 32.437 47.9039 32.222C48.1201 32.0076 48.2412 31.7157 48.2412 31.4122L48.2405 27.2645ZM34.1998 36.4682C30.2464 36.4682 27.0294 33.2702 27.0294 29.3399C27.0294 25.4097 30.2463 22.2116 34.1998 22.2116C38.154 22.2116 41.3709 25.4096 41.3709 29.3399C41.3709 33.2701 38.154 36.4682 34.1998 36.4682Z" fill="white"/>
</svg>
