<svg width="71" height="71" viewBox="0 0 71 71" fill="none" xmlns="http://www.w3.org/2000/svg">
<path d="M34.1401 20.5725C35.4197 20.483 36.5294 21.4477 36.6189 22.7273L38.9365 55.8706C39.026 57.1501 38.0613 58.2599 36.7817 58.3494C35.5022 58.4388 34.3924 57.4741 34.303 56.1946L31.9854 23.0513C31.8959 21.7718 32.8606 20.662 34.1401 20.5725Z" fill="black" stroke="#2477B4" stroke-width="2"/>
<path d="M29.7301 64.6709C24.1884 65.0584 19.7084 61.8132 19.4174 57.6518C19.1264 53.4904 23.1112 49.6533 28.6528 49.2658C34.1945 48.8783 38.6745 52.1235 38.9655 56.2849C39.2565 60.4463 35.2717 64.2834 29.7301 64.6709Z" fill="black" stroke="#2477B4" stroke-width="2"/>
<path d="M48.1231 43.9867L48.123 43.9868C47.5707 44.3496 46.8857 43.7663 47.157 43.1629C48.5473 40.0711 47.6779 36.8821 44.877 33.544L44.8769 33.544C41.9087 30.0066 37.8329 27.5978 32.6659 26.2807L32.6659 26.2807C32.3895 26.2102 32.1895 25.9706 32.1696 25.6861L31.3158 13.4766C31.2788 12.9472 31.8492 12.592 32.308 12.859C39.7926 17.2148 45.3802 20.9976 49.1295 24.3018C52.9274 27.6489 54.636 30.3317 54.7849 32.4615C55.0993 36.9568 52.9198 40.836 48.1231 43.9867Z" fill="black" stroke="#2477B4" stroke-width="2"/>
</svg>
