<svg width="45" height="45" viewBox="0 0 45 45" fill="none" xmlns="http://www.w3.org/2000/svg">
<g clip-path="url(#clip0_51_129)">
<path d="M40.808 27.9819L36.0191 21.1591V19.3167V18.3028V9.14514C36.0191 8.55028 35.7854 7.99092 35.3624 7.57124L28.8765 1.12267C28.4535 0.70228 27.8903 0.471436 27.2939 0.471436H7.77417C5.67139 0.471436 3.96143 2.17209 3.96143 4.26182V38.4413C3.96143 40.5309 5.67148 42.2316 7.77417 42.2316H22.0679H25.6312C25.8019 42.4582 25.9825 42.6776 26.1904 42.8743C27.0906 43.73 28.3031 44.2637 29.6449 44.2637C32.0616 44.2637 29.533 44.2637 32.7281 44.2637C34.0682 44.2637 35.2837 43.7301 36.184 42.8743C37.2331 41.8789 37.7405 40.5708 37.7405 39.2805V35.7072C39.1955 35.4024 40.4425 34.4704 41.142 33.1374C42.0089 31.4859 41.8815 29.5102 40.808 27.9819ZM16.0735 37.4772H8.65572V5.22587H24.4186V9.39606C24.4186 10.8816 25.6341 12.0906 27.1291 12.0906H31.3246V18.0113H31.3017V18.0148C29.7149 17.9778 28.1139 18.6646 27.0906 20.1074L21.5648 27.9818C20.4913 29.5101 20.3637 31.4859 21.2309 33.1374C21.9303 34.4704 23.1772 35.4024 24.6323 35.7072V37.4771H23.709H16.0735V37.4772ZM37.6272 31.3135C37.445 31.6584 37.0897 31.8729 36.6997 31.8729H36.6983H33.7755V39.2806C33.7755 39.8548 33.3054 40.3208 32.7294 40.3208H32.7279H29.6448H29.6432C29.0669 40.3208 28.5969 39.8548 28.5969 39.2806V31.8729H25.6742H25.6728C25.2828 31.8729 24.9273 31.6584 24.7454 31.3135C24.5648 30.9687 24.5906 30.5562 24.8156 30.2369L30.3268 22.3818C30.5233 22.1032 30.8445 21.9372 31.1855 21.9372H31.187C31.5282 21.9372 31.8492 22.1032 32.0455 22.3818L37.557 30.2369C37.7819 30.5561 37.8077 30.9687 37.6272 31.3135Z" fill="white"/>
</g>
<defs>
<clipPath id="clip0_51_129">
<rect width="44.0506" height="43.7922" fill="white" transform="translate(0.81189 0.471436)"/>
</clipPath>
</defs>
</svg>
